<?xml version="1.0" encoding="iso-8859-1"?>
<!-- Uploaded to: SVG Repo, www.svgrepo.com, Generator: SVG Repo Mixer Tools -->
<svg version="1.1" id="Capa_1" xmlns="http://www.w3.org/2000/svg" xmlns:xlink="http://www.w3.org/1999/xlink" 
	 viewBox="0 0 456.54 456.54" xml:space="preserve">
<g>
	<g id="XMLID_70_">
		<g>
			<rect x="60.625" y="10" style="fill:#EFEF78;" width="36.52" height="436.54"/>
			<path style="fill:#CE8D51;" d="M395.915,10v436.54H97.145V10H395.915z M328.955,177.11v-43.15h-60.85V78.59h-43.15v55.37h-60.85
				v43.15h60.85v200.84h43.15V177.11H328.955z"/>
			<polygon style="fill:#EFEF78;" points="328.955,133.96 328.955,177.11 268.105,177.11 268.105,377.95 224.955,377.95 
				224.955,177.11 164.105,177.11 164.105,133.96 224.955,133.96 224.955,78.59 268.105,78.59 268.105,133.96 			"/>
		</g>
		<g>
			
				<polygon style="fill:none;stroke:#000000;stroke-width:20;stroke-linecap:round;stroke-linejoin:round;stroke-miterlimit:10;" points="
				97.145,10 395.915,10 395.915,446.54 97.145,446.54 60.625,446.54 60.625,10 			"/>
			
				<polygon style="fill:none;stroke:#000000;stroke-width:20;stroke-linecap:round;stroke-linejoin:round;stroke-miterlimit:10;" points="
				328.955,133.96 268.105,133.96 268.105,78.59 224.955,78.59 224.955,133.96 164.105,133.96 164.105,177.11 224.955,177.11 
				224.955,377.95 268.105,377.95 268.105,177.11 328.955,177.11 			"/>
			
				<line style="fill:none;stroke:#000000;stroke-width:20;stroke-linecap:round;stroke-linejoin:round;stroke-miterlimit:10;" x1="97.145" y1="10" x2="97.145" y2="446.54"/>
		</g>
	</g>
</g>
</svg>